<svg version="1.1" id="Layer_1" xmlns="http://www.w3.org/2000/svg" xmlns:xlink="http://www.w3.org/1999/xlink" x="0px" y="0px"
	 width="100%" viewBox="0 0 1448 1405" enable-background="new 0 0 1448 1405" xml:space="preserve">
<path fill="#EFECEC" opacity="1.000000" stroke="none" 
	d="
M1449.000000,73.999985 
	C1449.000000,491.693512 1449.000000,909.387024 1448.653687,1327.478149 
	C1427.179688,1318.518677 1406.457520,1308.076416 1384.850098,1300.003052 
	C1313.073486,1273.184570 1238.353271,1259.613159 1162.253540,1253.128174 
	C1107.191772,1248.436035 1052.038208,1248.687500 996.935425,1252.325439 
	C938.044067,1256.213379 879.683838,1264.344360 821.824890,1276.009766 
	C766.483643,1287.167480 711.768005,1300.913208 658.097046,1318.366943 
	C597.011780,1338.231812 535.855957,1357.733765 473.299957,1372.525391 
	C428.084442,1383.216675 382.591156,1392.502075 336.434601,1398.060913 
	C315.116364,1400.628418 293.674530,1402.164551 272.298676,1404.269165 
	C270.823334,1404.414551 269.430969,1405.403442 268.000000,1406.000000 
	C242.639801,1406.000000 217.279602,1406.000000 191.674347,1405.608887 
	C188.824478,1404.836426 186.231567,1404.306519 183.613022,1404.096191 
	C146.173065,1401.091431 109.319489,1395.212280 73.954094,1381.942505 
	C47.378666,1371.971069 22.618628,1359.033569 2.543373,1338.396484 
	C2.227189,1338.071411 1.523075,1338.123779 0.999999,1338.000000 
	C1.000000,919.306458 1.000000,500.612946 1.362252,81.384109 
	C41.938313,101.301872 84.382294,115.721161 127.916771,127.049637 
	C181.225632,140.921585 235.499329,148.946762 290.385040,153.125595 
	C343.150543,157.143021 395.927368,156.837479 448.676239,153.236633 
	C495.548187,150.036987 542.107605,144.241547 588.411743,136.087372 
	C654.541077,124.441940 719.452637,108.014839 783.611816,88.390228 
	C833.842590,73.025932 883.922607,57.125027 934.420044,42.688240 
	C982.759827,28.868317 1032.026367,18.741232 1081.756226,11.322649 
	C1106.588135,7.618266 1131.688110,5.713382 1156.655884,2.897738 
	C1157.497925,2.802781 1158.221313,1.656332 1159.000000,1.000009 
	C1195.360229,1.000000 1231.720337,1.000000 1268.340698,1.387839 
	C1278.630005,3.154231 1288.667603,4.473623 1298.686646,5.922201 
	C1331.778809,10.706728 1363.862915,19.071295 1393.995117,33.845329 
	C1413.987305,43.647644 1432.591797,55.495171 1446.881470,73.083061 
	C1447.311890,73.612701 1448.281738,73.704193 1449.000000,73.999985 
z"/>
</svg>