<svg version="1.1" id="Layer_1" xmlns="http://www.w3.org/2000/svg" xmlns:xlink="http://www.w3.org/1999/xlink" x="0px" y="0px"
	width="100%" viewBox="0 0 1448 879" enable-background="new 0 0 1448 879" xml:space="preserve">
<rect width="100%" height="100%" fill="transparent" />
<path fill="#FFFFFF" opacity="1.000000" stroke="none" 
	d="
M1449.000000,77.000000 
	C1449.000000,318.358246 1449.000000,559.716492 1448.653564,801.475281 
	C1427.179199,792.518677 1406.456787,782.076172 1384.848999,774.002747 
	C1313.072510,747.184692 1238.352661,733.612976 1162.253052,727.128235 
	C1107.191406,722.436279 1052.037842,722.687500 996.935242,726.325500 
	C938.043945,730.213562 879.683716,738.344360 821.824890,750.009766 
	C766.483643,761.167664 711.768066,774.913452 658.097046,792.367065 
	C597.011719,812.231567 535.856201,831.734375 473.300201,846.525635 
	C428.084717,857.216736 382.591461,866.501892 336.435028,872.061035 
	C315.116852,874.628723 293.675018,876.164734 272.299164,878.269348 
	C270.823608,878.414612 269.431122,879.403442 268.000000,880.000000 
	C242.641754,880.000000 217.283508,880.000000 191.678772,879.609009 
	C188.828171,878.835449 186.236099,878.302917 183.618149,878.092834 
	C146.176193,875.087524 109.320045,869.209290 73.953094,855.937866 
	C47.377361,845.965271 22.615152,833.028442 2.540941,812.387939 
	C2.226626,812.064697 1.522327,812.120850 1.000002,812.000000 
	C1.000000,569.641785 1.000000,327.283508 1.362255,84.387062 
	C41.948376,104.305786 84.402420,118.728035 127.948044,130.056854 
	C181.269363,143.928925 235.557205,151.926743 290.452484,156.138687 
	C341.561951,160.060165 392.699127,159.878693 443.794250,156.599548 
	C492.181824,153.494186 540.253418,147.576508 588.050537,139.145187 
	C654.520020,127.420128 719.779236,110.973640 784.246521,91.154884 
	C833.037170,76.155510 881.572449,60.209675 930.766724,46.665943 
	C1005.013672,26.224934 1080.380005,10.798070 1157.415894,5.687559 
	C1204.985474,2.531826 1252.639771,1.781111 1300.036377,9.053810 
	C1332.603516,14.051039 1364.246704,22.239576 1393.942505,36.818005 
	C1413.949219,46.639828 1432.573486,58.482468 1446.879517,76.081032 
	C1447.310791,76.611427 1448.281006,76.703552 1449.000000,77.000000 
z"/>

</svg>