<svg version="1.1" id="Layer_1" xmlns="http://www.w3.org/2000/svg" xmlns:xlink="http://www.w3.org/1999/xlink" x="0px" y="0px"
 width="100%"  viewBox="0 0 1729 708" enable-background="new 0 0 1729 708" xml:space="preserve">
<path fill="#EFECEC" opacity="1.000000" stroke="none" 
d="
M117.000000,1.000000 
C602.368225,1.000000 1087.736450,1.000000 1573.414673,1.450944 
C1573.724609,210.574463 1573.724609,419.247040 1573.724609,628.445801 
C1572.194702,627.781189 1571.574951,627.563965 1571.003784,627.256409 
C1528.067017,604.151001 1482.196655,588.895020 1435.183594,576.814026 
C1383.281128,563.476685 1330.453247,555.801025 1277.069946,551.658203 
C1224.130737,547.549866 1171.162231,547.851807 1118.243042,551.415527 
C1072.702026,554.482300 1027.429077,560.022766 982.417603,567.850586 
C914.597961,579.644775 847.768250,595.577820 782.320007,616.749207 
C708.999939,640.466797 635.550903,663.500122 560.065002,679.486084 
C512.788025,689.498169 465.235107,697.690369 417.049042,701.689636 
C369.628021,705.625427 322.213013,706.303589 274.898499,699.910522 
C241.755875,695.432312 209.427017,687.870972 178.875351,673.955872 
C157.205933,664.086304 137.042831,651.919739 121.153313,633.646729 
C118.355751,630.429504 117.218246,627.161499 117.220253,622.868042 
C117.315979,417.731964 117.304733,212.595825 117.291214,7.459692 
C117.291077,5.306456 117.101265,3.153231 117.000000,1.000000 
z"/>

</svg>
