<svg version="1.1" id="Layer_1" xmlns="http://www.w3.org/2000/svg" xmlns:xlink="http://www.w3.org/1999/xlink" x="0px" y="0px"
	 width="100%" viewBox="0 0 1448 708" enable-background="new 0 0 1448 708" xml:space="preserve">
<path fill="#EFECEC" opacity="1.000000" stroke="none" 
	d="
M1.000000,637.000000 
	C1.000000,425.032257 1.000000,213.064499 1.000000,1.048371 
	C483.561005,1.048371 966.122009,1.048371 1449.000000,1.048371 
	C1449.000000,209.362610 1449.000000,417.725372 1448.653809,626.481934 
	C1422.616089,612.960876 1395.605835,602.156311 1367.950195,592.894531 
	C1282.575439,564.302551 1194.510986,551.554382 1104.829346,549.116028 
	C1014.041565,546.647705 924.130676,555.302429 835.006653,572.438782 
	C766.286133,585.652039 698.753967,603.458679 632.380066,625.622681 
	C537.647583,657.256470 441.412659,682.771851 342.305786,696.383911 
	C285.876251,704.134338 229.233032,707.448364 172.342850,702.059326 
	C138.754486,698.877625 105.751656,692.890869 74.022850,680.969910 
	C47.427143,670.977417 22.640806,658.048950 2.544684,637.398193 
	C2.227918,637.072693 1.523512,637.124329 1.000000,637.000000 
z"/>
</svg>