<?xml version="1.0" encoding="UTF-8"?>
<svg version="1.1" xmlns="http://www.w3.org/2000/svg" width="1456" height="712">
<path d="M0 0 C0.72276123 -0.00044186 1.44552246 -0.00088371 2.19018555 -0.00133896 C24.09944427 -0.00835319 45.74743105 0.3086954 67.5 3.25 C68.87608742 3.42911018 70.25222852 3.60780832 71.62841797 3.78613281 C130.41783821 11.50239969 193.01293682 27.97907065 233.5 74.25 C233.5 281.82 233.5 489.39 233.5 703.25 C-245.99 703.25 -725.48 703.25 -1219.5 703.25 C-1219.5 496.67 -1219.5 290.09 -1219.5 77.25 C-1211.58 81.21 -1211.58 81.21 -1203.5 85.25 C-1121.81337873 123.49576514 -1032.05197966 142.85580977 -900.26464844 154.07080078 C-897.90044161 154.18333825 -895.53645715 154.30076488 -893.17285156 154.42529297 C-841.36917685 157.14542983 -789.10854011 155.24153432 -737.5 150.25 C-736.17156067 150.12238281 -736.17156067 150.12238281 -734.81628418 149.9921875 C-668.91190102 143.6341293 -603.91266661 132.63080436 -539.5 117.25 C-538.6184021 117.04008423 -537.7368042 116.83016846 -536.82849121 116.6138916 C-492.96613958 106.15080581 -449.81138991 93.57015818 -406.9921875 79.46484375 C-308.93848311 47.17453282 -208.77280292 19.88048485 -51.49255371 1.39074707 C-49.52886417 1.25203886 -47.56569302 1.10605383 -45.60253906 0.95996094 C-30.42554655 -0.08164436 -15.20539469 0.00426413 0 0 Z " fill="#EEEBEB" transform="translate(1219.5,8.75)"/>
</svg>
