<svg version="1.1" id="Layer_1" xmlns="http://www.w3.org/2000/svg" xmlns:xlink="http://www.w3.org/1999/xlink" x="0px" y="0px"
	 width="100%" viewBox="0 0 2000 313" enable-background="new 0 0 2000 313" xml:space="preserve">
<path fill="#EFECEC" opacity="1.000000" stroke="none" 
	d="
M1937.000000,314.000000 
	C1451.965088,314.000000 966.930176,314.000000 481.447693,313.531342 
	C481.000092,238.056931 481.000092,163.051178 481.000092,87.447975 
	C523.159790,110.406448 567.321838,125.514702 612.573975,137.528229 
	C655.359436,148.886887 698.829956,156.881180 742.940796,160.935699 
	C768.270386,163.263916 793.636108,165.889145 819.035034,166.593689 
	C848.652710,167.415237 878.332764,166.632156 907.970764,165.919815 
	C948.058777,164.956284 987.944641,161.054321 1027.549072,154.933868 
	C1060.901001,149.779648 1094.260864,144.372650 1127.292358,137.513687 
	C1184.869141,125.557930 1241.539062,109.989960 1297.339844,91.353737 
	C1392.979858,59.412060 1490.028198,33.129425 1590.208984,19.942831 
	C1617.368286,16.367910 1644.716187,13.553199 1672.065796,12.266555 
	C1706.632324,10.640388 1741.232910,11.206629 1775.720825,15.739187 
	C1806.868042,19.832695 1837.361328,26.289495 1866.446411,38.175568 
	C1891.664062,48.481174 1915.198730,61.663853 1933.400757,82.728745 
	C1935.928345,85.653992 1937.087891,88.590263 1937.081909,92.540588 
	C1936.970459,166.360260 1937.000000,240.180161 1937.000000,314.000000 
z"/>

</svg>