<svg version="1.1" id="Layer_1" xmlns="http://www.w3.org/2000/svg" xmlns:xlink="http://www.w3.org/1999/xlink" x="0px" y="0px"
	 width="100%" viewBox="0 0 2000 712" enable-background="new 0 0 2000 712" xml:space="preserve">
<path fill="#EFECEC" opacity="1.000000" stroke="none" 
	d="
M1937.000000,713.000000 
	C1451.965088,713.000000 966.930176,713.000000 481.447693,712.531372 
	C481.000122,503.957184 481.000122,295.851654 481.000122,87.146866 
	C482.681763,87.998230 483.799255,88.625610 484.964874,89.144951 
	C505.604919,98.341309 525.834290,108.644043 546.971069,116.507278 
	C619.556091,143.510147 695.059021,157.322525 772.009888,163.731110 
	C825.246094,168.164703 878.568115,168.013733 931.847046,164.630432 
	C987.252258,161.112122 1042.223022,153.916504 1096.749512,143.419510 
	C1166.602173,129.972092 1235.199585,111.763557 1302.675171,89.263947 
	C1395.979370,58.151909 1490.782837,33.098480 1588.372559,19.621664 
	C1652.134277,10.816367 1716.056763,7.388883 1780.174561,15.946350 
	C1815.674194,20.684309 1850.165405,29.146360 1882.453247,45.040585 
	C1901.521851,54.427341 1919.292236,65.772659 1933.340942,82.188789 
	C1936.005859,85.302910 1937.084717,88.401413 1937.082764,92.514977 
	C1936.988525,299.343292 1937.000000,506.171631 1937.000000,713.000000 
z"/>

</svg>