<svg version="1.1" id="Layer_1" xmlns="http://www.w3.org/2000/svg" xmlns:xlink="http://www.w3.org/1999/xlink" x="0px" y="0px"
	 width="100%" viewBox="0 0 1454 313" enable-background="new 0 0 1454 313" xml:space="preserve">
<path fill="#EFECEC" opacity="1.000000" stroke="none" 
	d="
M1455.000000,84.000000 
	C1455.000000,160.649841 1455.000000,237.299683 1455.000000,313.974762 
	C970.456543,313.974762 485.913116,313.974762 1.000000,313.974762 
	C1.000000,238.973541 1.000000,163.946472 1.335626,88.562836 
	C15.368930,94.794411 28.791855,102.045219 42.811096,107.857788 
	C109.093361,135.339310 178.400314,151.244095 249.422729,159.744888 
	C277.787415,163.139908 306.374786,165.900787 334.904968,166.393433 
	C375.508850,167.094574 416.207245,166.501450 456.763214,164.446625 
	C488.057983,162.861023 519.323303,159.068832 550.368042,154.625229 
	C582.447998,150.033417 614.410645,144.255859 646.131104,137.598495 
	C703.672485,125.521942 760.373474,110.104134 816.148743,91.430733 
	C899.277893,63.599319 983.621399,40.583817 1070.121948,25.706940 
	C1109.948120,18.857397 1149.968018,13.868201 1190.296875,12.214292 
	C1225.039307,10.789480 1259.806641,11.038123 1294.441528,15.739218 
	C1322.395264,19.533453 1349.861206,24.943115 1376.371216,34.804550 
	C1405.301147,45.566135 1432.134644,59.551105 1452.867920,83.235901 
	C1453.302490,83.732323 1454.277222,83.755836 1455.000000,84.000000 
z"/>
</svg>